#N canvas 285 150 1290 663 10;
#X declare -lib mrpeach;
#X obj 16 12 import mrpeach;
#X obj 130 59 unpackOSC;
#X obj 52 172 print;
#X obj 130 99 routeOSC /noteon;
#X obj 130 149 unpack f f f;
#X obj 129 185 mtof;
#X obj 130 240 osc~;
#X obj 577 580 dac~;
#X obj 256 199 delay 1000;
#X obj 178 229 dbtorms;
#X msg 277 290 0;
#X msg 265 247 0;
#X obj 149 291 *~ 0;
#X obj 178 195 - 10;
#X obj 130 17 udpreceive 3341;
#X obj 349 61 unpackOSC;
#X obj 271 174 print;
#X obj 349 101 routeOSC /noteon;
#X obj 349 151 unpack f f f;
#X obj 348 187 mtof;
#X obj 349 242 osc~;
#X obj 475 201 delay 1000;
#X obj 397 231 dbtorms;
#X msg 496 292 0;
#X msg 484 249 0;
#X obj 368 293 *~ 0;
#X obj 397 197 - 10;
#X obj 569 63 unpackOSC;
#X obj 491 176 print;
#X obj 569 103 routeOSC /noteon;
#X obj 569 153 unpack f f f;
#X obj 568 189 mtof;
#X obj 569 244 osc~;
#X obj 695 203 delay 1000;
#X obj 617 233 dbtorms;
#X msg 716 294 0;
#X msg 704 251 0;
#X obj 588 295 *~ 0;
#X obj 617 199 - 10;
#X obj 790 65 unpackOSC;
#X obj 712 178 print;
#X obj 790 105 routeOSC /noteon;
#X obj 790 155 unpack f f f;
#X obj 789 191 mtof;
#X obj 790 246 osc~;
#X obj 916 205 delay 1000;
#X obj 838 235 dbtorms;
#X msg 937 296 0;
#X msg 925 253 0;
#X obj 809 297 *~ 0;
#X obj 838 201 - 10;
#X obj 349 19 udpreceive 3342;
#X obj 569 21 udpreceive 3343;
#X obj 790 23 udpreceive 3344;
#X obj 1009 68 unpackOSC;
#X obj 931 181 print;
#X obj 1009 108 routeOSC /noteon;
#X obj 1009 158 unpack f f f;
#X obj 1008 194 mtof;
#X obj 1009 249 osc~;
#X obj 1135 208 delay 1000;
#X obj 1057 238 dbtorms;
#X msg 1156 299 0;
#X msg 1144 256 0;
#X obj 1028 300 *~ 0;
#X obj 1057 204 - 10;
#X obj 1010 25 udpreceive 3345;
#X text 1856 1021 lol;
#X connect 1 0 3 0;
#X connect 3 0 2 0;
#X connect 3 0 4 0;
#X connect 4 0 5 0;
#X connect 4 1 13 0;
#X connect 4 2 8 0;
#X connect 5 0 6 0;
#X connect 6 0 12 0;
#X connect 8 0 11 0;
#X connect 9 0 12 1;
#X connect 10 0 12 1;
#X connect 11 0 12 1;
#X connect 12 0 7 0;
#X connect 12 0 7 1;
#X connect 13 0 9 0;
#X connect 14 0 1 0;
#X connect 15 0 17 0;
#X connect 17 0 16 0;
#X connect 17 0 18 0;
#X connect 18 0 19 0;
#X connect 18 1 26 0;
#X connect 18 2 21 0;
#X connect 19 0 20 0;
#X connect 20 0 25 0;
#X connect 21 0 24 0;
#X connect 22 0 25 1;
#X connect 23 0 25 1;
#X connect 24 0 25 1;
#X connect 25 0 7 0;
#X connect 25 0 7 1;
#X connect 26 0 22 0;
#X connect 27 0 29 0;
#X connect 29 0 28 0;
#X connect 29 0 30 0;
#X connect 30 0 31 0;
#X connect 30 1 38 0;
#X connect 30 2 33 0;
#X connect 31 0 32 0;
#X connect 32 0 37 0;
#X connect 33 0 36 0;
#X connect 34 0 37 1;
#X connect 35 0 37 1;
#X connect 36 0 37 1;
#X connect 37 0 7 1;
#X connect 37 0 7 0;
#X connect 38 0 34 0;
#X connect 39 0 41 0;
#X connect 41 0 40 0;
#X connect 41 0 42 0;
#X connect 42 0 43 0;
#X connect 42 1 50 0;
#X connect 42 2 45 0;
#X connect 43 0 44 0;
#X connect 44 0 49 0;
#X connect 45 0 48 0;
#X connect 46 0 49 1;
#X connect 47 0 49 1;
#X connect 48 0 49 1;
#X connect 49 0 7 1;
#X connect 49 0 7 0;
#X connect 50 0 46 0;
#X connect 51 0 15 0;
#X connect 52 0 27 0;
#X connect 53 0 39 0;
#X connect 54 0 56 0;
#X connect 56 0 55 0;
#X connect 56 0 57 0;
#X connect 57 0 58 0;
#X connect 57 1 65 0;
#X connect 57 2 60 0;
#X connect 58 0 59 0;
#X connect 59 0 64 0;
#X connect 60 0 63 0;
#X connect 61 0 64 1;
#X connect 62 0 64 1;
#X connect 63 0 64 1;
#X connect 64 0 7 0;
#X connect 64 0 7 1;
#X connect 65 0 61 0;
#X connect 66 0 54 0;
